<svg width="200" height="200" viewBox="0 0 200 200" fill="none" xmlns="http://www.w3.org/2000/svg">
  <!-- QR Code pattern -->
  <rect width="200" height="200" fill="white"/>
  
  <!-- QR Code squares (simplified pattern) -->
  <rect x="20" y="20" width="8" height="8" fill="black"/>
  <rect x="32" y="20" width="8" height="8" fill="black"/>
  <rect x="44" y="20" width="8" height="8" fill="black"/>
  <rect x="56" y="20" width="8" height="8" fill="black"/>
  <rect x="68" y="20" width="8" height="8" fill="black"/>
  <rect x="80" y="20" width="8" height="8" fill="black"/>
  <rect x="92" y="20" width="8" height="8" fill="black"/>
  <rect x="104" y="20" width="8" height="8" fill="black"/>
  <rect x="116" y="20" width="8" height="8" fill="black"/>
  <rect x="128" y="20" width="8" height="8" fill="black"/>
  <rect x="140" y="20" width="8" height="8" fill="black"/>
  <rect x="152" y="20" width="8" height="8" fill="black"/>
  <rect x="164" y="20" width="8" height="8" fill="black"/>
  <rect x="176" y="20" width="8" height="8" fill="black"/>
  
  <rect x="20" y="32" width="8" height="8" fill="black"/>
  <rect x="44" y="32" width="8" height="8" fill="black"/>
  <rect x="68" y="32" width="8" height="8" fill="black"/>
  <rect x="92" y="32" width="8" height="8" fill="black"/>
  <rect x="116" y="32" width="8" height="8" fill="black"/>
  <rect x="140" y="32" width="8" height="8" fill="black"/>
  <rect x="164" y="32" width="8" height="8" fill="black"/>
  
  <rect x="20" y="44" width="8" height="8" fill="black"/>
  <rect x="32" y="44" width="8" height="8" fill="black"/>
  <rect x="44" y="44" width="8" height="8" fill="black"/>
  <rect x="56" y="44" width="8" height="8" fill="black"/>
  <rect x="68" y="44" width="8" height="8" fill="black"/>
  <rect x="80" y="44" width="8" height="8" fill="black"/>
  <rect x="92" y="44" width="8" height="8" fill="black"/>
  <rect x="104" y="44" width="8" height="8" fill="black"/>
  <rect x="116" y="44" width="8" height="8" fill="black"/>
  <rect x="128" y="44" width="8" height="8" fill="black"/>
  <rect x="140" y="44" width="8" height="8" fill="black"/>
  <rect x="152" y="44" width="8" height="8" fill="black"/>
  <rect x="164" y="44" width="8" height="8" fill="black"/>
  <rect x="176" y="44" width="8" height="8" fill="black"/>
  
  <!-- Continue pattern for full QR code -->
  <rect x="20" y="56" width="8" height="8" fill="black"/>
  <rect x="44" y="56" width="8" height="8" fill="black"/>
  <rect x="68" y="56" width="8" height="8" fill="black"/>
  <rect x="92" y="56" width="8" height="8" fill="black"/>
  <rect x="116" y="56" width="8" height="8" fill="black"/>
  <rect x="140" y="56" width="8" height="8" fill="black"/>
  <rect x="164" y="56" width="8" height="8" fill="black"/>
  
  <!-- Corner finder patterns -->
  <rect x="20" y="20" width="24" height="24" fill="none" stroke="black" stroke-width="2"/>
  <rect x="26" y="26" width="12" height="12" fill="black"/>
  
  <rect x="156" y="20" width="24" height="24" fill="none" stroke="black" stroke-width="2"/>
  <rect x="162" y="26" width="12" height="12" fill="black"/>
  
  <rect x="20" y="156" width="24" height="24" fill="none" stroke="black" stroke-width="2"/>
  <rect x="26" y="162" width="12" height="12" fill="black"/>
  
  <!-- Center logo placeholder -->
  <circle cx="100" cy="100" r="20" fill="white"/>
  <circle cx="100" cy="100" r="16" fill="#3B82F6"/>
  <text x="100" y="105" text-anchor="middle" font-family="Arial, sans-serif" font-size="12" font-weight="bold" fill="white">MM</text>
</svg>
